# xmcd
#
# Track frame offsets:
#	150
#	17308
#	35884
#	58125
#	72515
#
# Disc length: 1232 seconds
#
# Revision: 0
# Processed by: cddbd v1.4PL0 Copyright (c) Steve Scherf et al.
# Submitted via: dBpowerAMP V4.0
#
DISCID=4204ce05
DTITLE=Maia Davies - New Mornings
DYEAR=1900
DGENRE=Blues
TTITLE0=Insignificant Issue
TTITLE1=Lost Vegas
TTITLE2=Distance
TTITLE3=Something New
TTITLE4=New Mornings
EXTD=New artist from Montreal Canada. Mostly sings blues...
EXTT0=
EXTT1=
EXTT2=
EXTT3=
EXTT4=
PLAYORDER=
